PathFileType	4	(X/Y/Z)	traj.trc
DataRate	CameraRate	NumFrames	NumMarkers	Units	OrigDataRate	OrigDataStartFrame	OrigNumFrames
30.00	30.00	102	1	mm	30.00	1	200
Frame#	Time	wrist		
		X1	Y1	Z1

0	0.0	473.4075665473938	301.71114206314087	-87.52991259098053
1	0.020100502512562814	473.4075665473938	301.71114206314087	-87.52991259098053
2	0.04020100502512563	473.40744107541104	301.7119176437149	-87.53015301465226
3	0.06030150753768844	473.40681877227024	301.7157642891289	-87.53134544345365
4	0.08040201005025126	473.40521539113746	301.7256752766806	-87.53441776900867
5	0.10050251256281408	473.4021616634685	301.7445512982912	-87.54026918222752
6	0.12060301507537688	473.39720314538584	301.77520141009956	-87.54977046767284
7	0.1407035175879397	473.3899000640548	301.8203439820556	-87.56376429792613
8	0.16080402010050251	473.3798271640602	301.88260764751385	-87.58306552795395
9	0.18090452261306533	473.366573553783	301.9645322528271	-87.60846148947424
10	0.20100502512562815	473.3497425517765	302.0685698069401	-87.6407122853226
11	0.22110552763819097	473.3289515331431	302.1970854309829	-87.6805510838187
12	0.24120603015075376	473.30383177591085	302.35235830786473	-87.72868441313234
13	0.2613065326633166	473.27402830740976	302.5365826318674	-87.78579245565
14	0.2814070351758794	473.23919975064837	302.75186855823915	-87.85252934234097
15	0.30150753768844224	473.19901817069047	303.0002431527879	-87.92952344712373
16	0.32160804020100503	473.1531689210313	303.2836513414751	-88.01737768123216
17	0.3417085427135678	473.10135048997427	303.60395686000936	-88.11666978758196
18	0.36180904522613067	473.04327434700735	303.96294320343986	-88.22795263513679
19	0.38190954773869346	472.9786647891799	304.36231457575	-88.35175451327473
20	0.4020100502512563	472.9072587874785	304.80369683945133	-88.48857942615444
21	0.4221105527638191	472.82880583320434	305.28863846517663	-88.63890738708153
22	0.44221105527638194	472.743067784349	305.8186114812737	-88.80319471287486
23	0.4623115577889447	472.6498187119714	306.3950124233993	-88.98187431823274
24	0.4824120603015075	472.54884474657416	307.01916328411215	-89.17535601009935
25	0.5025125628140703	472.4399439244799	307.6923124624672	-89.38402678203097
26	0.5226130653266332	472.3229260342083	308.41563571360865	-89.6082511085623
27	0.542713567839196	472.19761246285213	309.19023709836375	-89.8483712395727
28	0.5628140703517588	472.0638360424539	310.0171499328366	-90.10470749465257
29	0.5829145728643216	471.9214408963824	310.8973377380016	-90.3775585574696
30	0.6030150753768845	471.7702822857093	311.8316951892968	-90.66720177013501
31	0.6231155778894473	471.6102264555854	312.82104906621805	-90.97389342756998
32	0.6432160804020101	471.4411504816175	313.866159201912	-91.29786907187183
33	0.6633165829145728	471.26294211624463	314.9677194327703	-91.63934378668034
34	0.6834170854271356	471.0754996351146	316.1263585480226	-91.99851249154412
35	0.7035175879396985	470.8787316834607	317.34264123933076	-92.37555023628674
36	0.7236180904522613	470.67255712247805	318.61706905038176	-92.77061249537323
37	0.7437185929648241	470.4569048757001	319.9500813264821	-93.18383546227624
38	0.7638190954773869	470.2317137753752	321.3420561641507	-93.61533634384233
39	0.7839195979899498	469.9969324088432	322.7933113607128	-94.06521365465838
40	0.8040201005025126	469.75251896491164	324.30410536389365	-94.53354751141775
41	0.8241206030150754	469.49844108023285	325.87463822141194	-95.02039992728669
42	0.8442211055276382	469.23467568567986	327.50505253057355	-95.52581510627049
43	0.864321608040201	468.9612088527231	329.19543438786496	-96.04981973758
44	0.8844221105527639	468.67803563980715	330.9458143385471	-96.59242328999765
45	0.9045226130653267	468.38515993872704	332.75616832624866	-97.15361830624403
46	0.9246231155778895	468.08259432100476	334.62641864255994	-97.73338069734392
47	0.9447236180904522	467.77035988426576	336.5564348766263	-98.33167003699276
48	0.964824120603015	467.44848609861555	338.54603486474196	-98.94842985592292
49	0.9849246231155779	467.1170106530163	340.5949856399432	-99.58358793626992
50	1.0050251256281406	466.77597930166314	342.7030043816025	-100.23705660593882
51	1.0251256281407035	466.4254457103607	344.86975936502165	-100.90873303297043
52	1.0452261306532664	466.06547130289977	347.0948709110257	-101.59849951990766
53	1.065326633165829	465.6961251074337	349.37791233555635	-102.30622379816181
54	1.085427135678392	465.31748360285496	351.7184108992657	-103.03175932237885
55	1.105527638190955	464.9296305651717	354.1158487571097	-103.7749455648057
56	1.1256281407035176	464.53265691388407	356.5696639079418	-104.5356083096566
57	1.1457286432160805	464.126660558361	359.07925114410676	-105.31355994747929
58	1.1658291457286432	463.7117462442164	361.64396300103397	-106.10859976952139
59	1.185929648241206	463.2880253996861	364.26311070683096	-106.9205142620967
60	1.206030150753769	462.855615982004	366.9359651318776	-107.74907740095144
61	1.2261306532663316	462.4146423237785	369.66175773841894	-108.59405094563056
62	1.2462311557788945	461.96523497936954	372.4396815301593	-109.45518473384409
63	1.2663316582914572	461.50753057126457	375.2688920018559	-110.33221697583336
64	1.2864321608040201	461.0416716364555	378.1485080889119	-111.22487454873733
65	1.306532663316583	460.5678064728146	381.07761311697084	-112.13287329095891
66	1.3266331658291457	460.0860889854718	384.0552557515096	-113.05591829653123
67	1.3467336683417086	459.59667853319064	387.0804509474322	-113.99370420948391
68	1.3668341708542713	459.09973977474493	390.15218089866346	-114.94591551820935
69	1.3869346733668342	458.5954425152953	393.2693959877424	-115.91222684982914
70	1.407035175879397	458.0839615527658	396.4310157354163	-116.89230326456023
71	1.4271356783919598	457.5654765242201	399.63592975023363	-117.88580055008124
72	1.4472361809045227	457.04017175223856	402.8829986781384	-118.89236551589882
73	1.4673366834170853	456.508236091294	406.171055152063	-119.91163628771389
74	1.4874371859296482	455.9698627741288	409.4989047415223	-120.94324260178799
75	1.5075376884422111	455.4252492581312	412.8653269022074	-121.98680609930943
76	1.5276381909547738	454.874597071712	416.26907592557853	-123.04194062075985
77	1.5477386934673367	454.3181116606807	419.7088818884594	-124.1082525002802
78	1.5678391959798996	453.75600223462226	423.1834516026303	-125.18534086003736
79	1.5879396984924623	453.18848161327355	426.691469564422	-126.27279790459012
80	1.6080402010050252	452.6157660729001	430.2315989043092	-127.37020921525566
81	1.6281407035175879	452.0380751926721	433.8024823365041	-128.4771540444759
82	1.6482412060301508	451.45563170104157	437.4027431085501	-129.59320561018362
83	1.6683417085427137	450.86866132211816	441.0309859509155	-130.71793139016884
84	1.6884422110552764	450.27739262204625	444.68579802658684	-131.8508934164452
85	1.7085427135678393	449.6820568553811	448.3657498806627	-132.99164856961602
86	1.728643216080402	449.0828878114657	452.06939638994703	-134.13974887324088
87	1.7487437185929648	448.48012166080684	455.79527771254334	-135.29474178820172
88	1.7688442211055277	447.8739968014521	459.5419202374475	-136.45617050706926
89	1.7889447236180904	447.26475370536593	463.30783753414227	-137.62357424846917
90	1.8090452261306533	446.6526347648065	467.09153130218976	-138.79648855144842
91	1.829145728643216	446.03788413870205	470.89149232082616	-139.97444556984163
92	1.849246231155779	445.4207475990274	474.70620139855464	-141.1569743666373
93	1.8693467336683418	444.80147237718035	478.53413032273914	-142.34360120834413
94	1.8894472361809045	444.1803070103588	482.3737428091981	-143.5338498593573
95	1.9095477386934674	443.55750118793617	486.2234954517979	-144.72724187632474
96	1.92964824120603	442.9333055978391	490.08183867204633	-145.92329690251356
97	1.949748743718593	442.307971772923	493.94721766868673	-147.1215329621761
98	1.9698492462311559	441.6817519373493	497.818073367291	-148.3214667549166
99	1.9899497487437185	441.0548988529614	501.69284336985345	-149.52261395005698
100	2.0100502512562812	440.42766566566144	505.5699629043844	-150.72448948100362
101	2.030150753768844	439.80030575178694	509.4478657745037	-151.9266078396134
